<svg width="16" height="16" viewBox="0 0 16 16" fill="none" xmlns="http://www.w3.org/2000/svg">
<g clip-path="url(#clip0_4043_14594)">
<path d="M7.96172 0C3.59809 0 0 3.59809 0 7.96172C0 12.4019 3.59809 15.9234 7.96172 15.9234C12.4019 15.9234 15.9234 12.3254 15.9234 7.96172C16 3.59809 12.4019 0 7.96172 0ZM7.96172 14.4689C4.36364 14.4689 1.5311 11.5598 1.5311 8.03828C1.5311 4.44019 4.44019 1.5311 7.96172 1.5311C11.4833 1.5311 14.3923 4.44019 14.3923 7.96172C14.4689 11.5598 11.5598 14.4689 7.96172 14.4689Z" fill="black" fill-opacity="0.6"/>
<path d="M8.72641 7.65545V3.36837C8.72641 3.13871 8.5733 2.9856 8.34364 2.9856H7.57809C7.34842 2.9856 7.19531 3.13871 7.19531 3.36837V8.11478C7.19531 8.19134 7.27187 8.34445 7.27187 8.421L9.64507 10.7942C9.79818 10.9473 10.0278 10.9473 10.181 10.7942L10.7168 10.2583C10.87 10.1052 10.87 9.87555 10.7168 9.72244L8.72641 7.65545Z" fill="black" fill-opacity="0.6"/>
</g>
<defs>
<clipPath id="clip0_4043_14594">
<rect width="16" height="16" fill="white"/>
</clipPath>
</defs>
</svg>
