<svg width="19" height="20" viewBox="0 0 19 20" fill="none" xmlns="http://www.w3.org/2000/svg">
<path d="M9.49881 19.5C4.24653 19.5 0 15.2529 0 10C0 4.74706 4.24653 0.5 9.49881 0.5C14.7511 0.5 18.9976 4.74706 18.9976 10C18.9976 15.2529 14.7511 19.5 9.49881 19.5ZM9.49881 2.84706C5.47578 2.84706 2.23501 6.08823 2.23501 10.1118C2.23501 14.1353 5.47578 17.3765 9.49881 17.3765C13.5218 17.3765 16.7626 14.1353 16.7626 10.1118C16.7626 6.08823 13.5218 2.84706 9.49881 2.84706Z" fill="#F2AA52"/>
<path d="M10.0581 15.2529H8.94059C8.60534 15.2529 8.38184 15.0294 8.38184 14.6941V13.5765C8.38184 13.2412 8.60534 13.0176 8.94059 13.0176H10.0581C10.3934 13.0176 10.6169 13.2412 10.6169 13.5765V14.6941C10.6169 15.0294 10.3934 15.2529 10.0581 15.2529Z" fill="#F2AA52"/>
<path d="M10.0581 12.0115H8.94059C8.60534 12.0115 8.38184 11.7879 8.38184 11.4527V6.1997C8.38184 5.8644 8.60534 5.64087 8.94059 5.64087H10.0581C10.3934 5.64087 10.6169 5.8644 10.6169 6.1997V11.4527C10.6169 11.7879 10.3934 12.0115 10.0581 12.0115Z" fill="#F2AA52"/>
</svg>
