<svg width="987" height="603" viewBox="0 0 987 603" fill="none" xmlns="http://www.w3.org/2000/svg">
<g clip-path="url(#clip0_4159_8767)">
<path d="M979.5 358.06C975.07 353.63 968.43 351.42 959.57 351.42C950.71 351.42 943.06 354.14 937.83 359.57C932.8 365.01 930.28 372.25 930.28 381.31C930.28 389.16 932.49 395.5 936.92 400.34C941.55 405.17 948.3 407.59 957.15 407.59C966 407.59 973.36 404.87 978.59 399.44C983.82 393.8 986.44 386.35 986.44 377.09C986.44 368.63 984.12 362.29 979.49 358.06H979.5Z" fill="#333333"/>
<path d="M476.86 176.26C489.24 176.26 499.18 172.95 506.67 166.32C514.16 159.41 517.9 150.19 517.9 138.67C517.9 129.17 514.59 121.82 507.96 116.64C501.34 111.46 492.7 108.86 482.04 108.86C470.23 108.86 460.3 112.32 452.23 119.23C444.45 125.85 440.57 134.21 440.57 144.29C440.57 154.37 443.59 162.29 449.64 168.05C455.69 173.52 464.76 176.26 476.86 176.26Z" fill="#AB0909"/>
<path d="M885.9 200.47C830.57 196.92 780.73 223.35 755.06 272.59C744.4 293.04 739.08 314.78 739.08 337.82C739.08 338.42 739.1 339.01 739.11 339.61C734.92 343.95 731.18 347.54 727.9 350.35C719.84 357.26 711.92 360.72 704.14 360.72C698.09 360.72 693.05 357.12 689.02 349.92C685.28 342.72 682.83 330.77 681.68 314.06C708.18 268.56 729.34 224.2 745.18 181C761.02 137.8 768.94 100.07 768.94 67.8202C768.94 45.0702 764.76 28.0802 756.41 16.8402C748.35 5.61024 738.12 -0.00976562 725.74 -0.00976562C700.68 -0.00976562 680.38 19.8602 664.83 59.6102C649.57 99.0702 639.2 146.73 633.73 202.6C612.42 204.9 593.12 212.39 575.84 225.06C558.85 237.44 545.46 253.57 535.66 273.44C526.18 292.4 521.3 312.98 521 335.18C515.52 341.23 510.74 346.14 506.67 349.9C498.89 357.1 492.41 360.7 487.23 360.7C481.76 360.7 477.87 358.4 475.57 353.79C473.27 349.18 472.11 342.56 472.11 333.92C472.11 322.69 475.57 301.23 482.48 269.55C487.95 243.34 490.69 226.64 490.69 219.44C490.69 209.65 483.35 204.75 468.66 204.75C459.16 204.75 452.24 206.48 447.92 209.93C443.6 213.39 440.14 219.72 437.55 228.94C432.37 246.51 428.05 265.52 424.59 285.96C424.44 286.9 424.3 287.82 424.16 288.74C416.99 294.08 410.78 296.76 405.55 296.76C398.35 296.76 394.75 291.72 394.75 281.64C394.75 278.76 395.9 271.56 398.21 260.04C400.8 245.64 402.1 236.57 402.1 232.82C402.1 214.1 392.74 204.74 374.02 204.74C364.52 204.74 354 208.05 342.48 214.68C331.25 221.3 319.73 232.39 307.92 247.94C296.11 263.49 285.46 283.65 275.95 308.42C277.1 295.75 278.54 285.09 280.27 276.45C282 267.81 284.3 257.73 287.18 246.21C291.5 230.08 293.66 219.71 293.66 215.11C293.66 211.08 292.51 208.34 290.2 206.9C287.9 205.46 283.86 204.74 278.1 204.74C267.44 204.74 259.09 206.76 253.04 210.79C247.28 214.53 243.1 220.58 240.51 228.93C231.42 257.68 226.22 287.79 224.89 319.26C206.88 331.25 188.22 344.77 168.9 359.83C170.34 350.61 171.64 341.97 172.79 333.91C174.23 325.56 175.53 317.93 176.68 311.01C180.63 287.32 183.53 269.46 185.4 257.44C187.99 243.04 189.29 233.97 189.29 230.22C189.29 211.5 179.93 202.14 161.21 202.14C151.1 202.14 140.9 202.43 130.86 203.49C110.78 205.61 91.31 210.81 74.3 222.88C56.73 235.26 42.62 251.82 31.96 272.56C21.3 293.01 15.98 314.75 15.98 337.79C15.98 358.81 21.31 375.81 31.96 388.77C42.62 401.73 56.87 408.21 74.73 408.21C82.51 408.21 90.28 406.19 98.06 402.16C106.12 397.84 112.6 391.79 117.5 384.02L114.91 400.87C70.56 435.14 40.32 463.94 24.19 487.27C8.06 510.89 0 532.92 0 553.37C0 568.06 4.61 579.87 13.82 588.79C23.04 598.01 34.99 602.61 49.68 602.61C77.04 602.61 99.5 585.47 117.07 551.2C134.93 517.22 149.33 470.42 160.27 410.8L187.92 392.22C196.72 386.06 209.39 377.37 225.92 366.18C226.99 376.44 228.69 384.7 231.03 390.93C235.64 402.45 243.41 408.21 254.36 408.21C263.29 408.21 269.77 405.91 273.8 401.3C278.12 396.4 281.86 387.19 285.03 373.65C289.35 356.08 294.97 339.38 301.88 323.54C308.79 307.7 315.7 295.03 322.62 285.52C329.82 275.73 335.58 270.83 339.9 270.83C343.07 270.83 344.65 273.13 344.65 277.74C344.65 279.76 344.36 283.64 343.79 289.4C342.93 293.72 342.49 298.04 342.49 302.36C342.49 315.61 346.38 326.12 354.15 333.9C362.21 341.68 373.88 345.56 389.14 345.56C399.96 345.56 410.21 343.25 419.88 338.63C420.25 359.12 424.41 375.69 432.37 388.32C441.01 401.57 454.69 408.19 473.41 408.19C492.13 408.19 511.03 398.67 531.37 379.65C533.27 382.86 535.41 385.9 537.82 388.75C549.34 401.71 563.88 408.19 581.45 408.19C593.55 408.19 604.06 405.6 612.99 400.41C622.21 395.23 632.86 385 644.96 369.74C656.48 395.37 673.18 408.19 695.07 408.19C708.89 408.19 722.86 403.15 736.97 393.07C741.43 389.79 745.77 386.29 750 382.6C751.29 384.74 752.68 386.79 754.2 388.75C764.57 401.71 777.96 408.19 794.38 408.19C816.27 408.19 831.68 395.81 840.6 371.04L840.17 377.95C840.17 388.61 842.47 396.38 847.08 401.28C851.98 405.89 859.32 408.19 869.11 408.19C878.9 408.19 886.39 405.89 890.71 401.28C895.32 396.38 897.62 388.46 897.62 377.52C897.62 357.65 898.48 339.79 900.21 323.95C903.38 294.88 908.8 266.02 913.43 237.15C915.24 225.84 914.64 213.6 904.58 206.16C899.56 202.44 892.94 200.87 885.89 200.42L885.9 200.47ZM690.31 147.74C694.34 116.35 699.09 91.0002 704.57 71.7102C710.04 52.1302 715.51 42.3302 720.99 42.3302C723.58 42.3302 725.74 45.3502 727.47 51.4002C729.49 57.4502 730.49 65.9402 730.49 76.8902C730.49 119.51 714.36 175.96 682.11 246.23C683.84 211.96 686.57 179.13 690.32 147.73L690.31 147.74ZM78.62 534.82C69.69 552.1 61.63 560.74 54.43 560.74C50.11 560.74 46.94 559.16 44.93 555.99C43.2 552.82 42.34 548.79 42.34 543.89C42.34 532.37 47.24 518.98 57.03 503.71C66.82 488.45 82.81 471.31 104.98 452.3C96.63 490.03 87.84 517.53 78.63 534.81L78.62 534.82ZM122.25 317.96C119.66 332.94 115.34 344.46 109.29 352.52C103.24 360.58 96.91 364.62 90.28 364.62C83.65 364.62 78.9 362.46 75.16 358.14C71.7 353.82 69.98 347.2 69.98 338.27C69.98 322.14 73 306.88 79.05 292.48C85.1 278.08 93.16 266.56 103.24 257.92C113.32 248.99 124.26 244.38 136.07 244.1L122.25 317.97V317.96ZM612.98 358.14C607.51 362.46 602.04 364.62 596.56 364.62C582.16 364.62 574.96 354.11 574.96 333.08C574.96 313.21 580.14 295.21 590.51 279.08C601.17 262.66 614.41 252.01 630.25 247.11C629.67 262.66 629.39 273.89 629.39 280.81C629.39 300.11 630.83 317.53 633.71 333.08C625.36 345.18 618.45 353.53 612.97 358.14H612.98ZM850.96 287.72C845.78 316.52 839.87 336.54 833.25 347.77C826.63 359 819.28 364.62 811.22 364.62C805.75 364.62 801.28 362.46 797.83 358.14C794.66 353.53 793.08 346.91 793.08 338.27C793.08 322.14 796.1 306.88 802.15 292.48C808.2 278.08 816.26 266.56 826.34 257.92C836.42 248.99 847.36 244.38 859.17 244.1L850.96 287.73V287.72Z" fill="#333333"/>
</g>
<defs>
<clipPath id="clip0_4159_8767">
<rect width="986.45" height="602.64" fill="white"/>
</clipPath>
</defs>
</svg>
